<svg width="39" height="47" viewBox="0 0 39 47" fill="none" xmlns="http://www.w3.org/2000/svg">
<g clip-path="url(#clip0)">
<path fill-rule="evenodd" clip-rule="evenodd" d="M6.87951 4.46434C5.69623 6.57894 4.51296 8.71512 3.32968 10.8297C6.4062 13.5916 5.82532 17.9503 4.62053 22.5895C1.11373 36.0323 11.1178 38.9669 19.6589 44.3828C28.4581 39.1395 38.118 35.6655 34.6972 22.5895C33.4924 17.9503 32.9116 13.5916 35.9881 10.8297C34.8048 8.71512 33.6215 6.57894 32.4382 4.46434C25.3386 1.52979 13.9792 1.52979 6.87951 4.46434Z" fill="#006633"/>
<path d="M1.47943 9.79407L5.02926 3.42869L5.41651 2.75978L6.08345 2.47927C9.89144 0.925689 14.7967 0.127319 19.6588 0.127319C24.521 0.127319 29.4262 0.925689 33.2558 2.50085L33.9012 2.80294L34.3099 3.42869L37.8598 9.79407L38.6988 11.2829L37.4295 12.4265C36.3753 13.3759 35.945 14.649 35.8805 16.0947C35.7944 17.8425 36.2247 19.9139 36.7841 22.0501C40.2263 35.1909 32.3522 39.6574 23.8111 44.4692C22.7784 45.0518 21.7242 45.6344 20.7561 46.217L19.6373 46.8859L18.5401 46.1954C17.3353 45.4402 15.9584 44.6418 14.603 43.865C6.55676 39.2474 -0.822578 34.9967 2.55514 22.0501C3.1145 19.8924 3.52327 17.8425 3.45873 16.0947C3.39419 14.6274 2.9639 13.3544 1.90971 12.4265L0.640381 11.2829L1.47943 9.79407ZM8.36394 6.16904L5.93285 10.5277C7.11612 12.1029 7.63246 13.9154 7.71852 15.9005C7.82609 18.1662 7.33127 20.626 6.68584 23.1074C4.12566 32.8821 10.1496 36.3561 16.7114 40.1321C17.6795 40.6931 18.6692 41.2542 19.7019 41.8799C20.3903 41.4915 21.0573 41.1031 21.7242 40.7363C28.7593 36.766 35.2566 33.0763 32.6534 23.1074C32.0079 20.6044 31.5131 18.1662 31.6207 15.9005C31.7067 13.9154 32.2231 12.0813 33.4064 10.5277L30.9753 6.16904C27.7912 4.98227 23.7465 4.39968 19.6804 4.39968C15.5927 4.39968 11.548 5.00385 8.36394 6.16904Z" fill="#009933"/>
<path fill-rule="evenodd" clip-rule="evenodd" d="M6.87951 4.46434C5.69623 6.57894 4.51296 8.71512 3.32968 10.8297C6.4062 13.5916 5.82532 17.9503 4.62053 22.5895C1.11373 36.0323 11.1823 39.5495 19.6589 44.3828C28.4581 39.3553 38.2255 36.0539 34.6972 22.5895C33.4924 17.9503 32.9116 13.5916 35.9881 10.8297C34.8048 8.71512 33.6215 6.57894 32.4382 4.46434C25.3386 1.52979 13.9792 1.52979 6.87951 4.46434Z" fill="#006633"/>
<path d="M2.53368 10.3983L6.08351 4.03292L6.25562 3.77399L6.5353 3.62295C10.1927 2.11252 14.9473 1.3573 19.6589 1.3573C24.392 1.3573 29.1251 2.11252 32.7825 3.62295L33.0622 3.75241L33.2343 4.01134L36.7841 10.3767L37.1499 11.0241L36.612 11.5203C35.2781 12.7071 34.7403 14.2823 34.6542 16.0516C34.5682 17.9505 34.9984 20.1298 35.6008 22.3739C38.8925 34.9752 31.298 39.0965 23.1657 43.5199C22.133 44.0809 21.1003 44.6419 20.1322 45.2029L19.6804 45.4619L19.2286 45.2029C18.325 44.6851 17.3569 44.1672 16.3888 43.6278C8.38551 39.2907 0.446812 34.9967 3.75998 22.3739C4.34086 20.1298 4.79266 17.9505 4.7066 16.0516C4.62055 14.2823 4.08269 12.7071 2.74882 11.5203L2.21097 11.0241L2.53368 10.3983ZM7.52495 5.19811L4.46995 10.6788C5.84685 12.1677 6.40622 13.9586 6.51379 15.9869C6.59984 18.1015 6.14805 20.4535 5.52414 22.8486C2.57671 34.0905 9.86998 38.0392 17.2493 42.031C18.0453 42.4626 18.8629 42.8941 19.6804 43.3688C20.5625 42.8725 21.4446 42.3978 22.3051 41.9231C29.792 37.8666 36.7841 34.0689 33.8582 22.8486C33.2343 20.4535 32.761 18.1231 32.8686 15.9869C32.9546 13.9802 33.5355 12.1677 34.9124 10.6788L31.8574 5.19811C28.4582 3.8603 24.0908 3.19139 19.7019 3.19139C15.2915 3.19139 10.9242 3.8603 7.52495 5.19811Z" fill="white"/>
<path fill-rule="evenodd" clip-rule="evenodd" d="M6.87951 4.46434C5.69623 6.57894 4.51296 8.71512 3.32968 10.8297C6.4062 13.5916 5.82532 17.9503 4.62053 22.5895C1.32887 35.2124 10.5799 39.4632 19.6589 44.3828C28.7378 39.42 38.0104 35.2124 34.6972 22.5895C33.4924 17.9503 32.9116 13.5916 35.9881 10.8297C34.8048 8.71512 33.6215 6.57894 32.4382 4.46434C25.3386 1.52979 13.9792 1.52979 6.87951 4.46434Z" fill="white"/>
<path d="M3.13598 10.7219L6.68581 4.35653L6.72884 4.2918L6.79338 4.24864C10.3647 2.78137 15.0118 2.04773 19.6588 2.04773C24.3059 2.04773 28.9529 2.78137 32.5242 4.27022L32.5888 4.31337L32.6318 4.37811L36.1816 10.7435L36.2677 10.8945L36.1386 11.024C34.6541 12.3618 34.0517 14.088 33.9657 16.03C33.8796 18.0151 34.3314 20.2376 34.9338 22.5464C38.1179 34.6946 29.878 39.1396 21.2078 43.8219C20.6915 44.1024 20.1751 44.3829 19.7879 44.5987L19.6803 44.6634L19.5728 44.5987C19.121 44.3613 18.6907 44.124 18.2389 43.8866C9.50416 39.1827 1.22123 34.7162 4.40532 22.5248C5.00771 20.216 5.45951 17.9935 5.37345 16.0084C5.28739 14.0449 4.685 12.3402 3.20053 11.0024L3.07144 10.873L3.13598 10.7219ZM7.03004 4.65861L3.60929 10.7866C5.11528 12.1892 5.71768 13.9801 5.80373 16.0084C5.88979 18.0583 5.43799 20.3239 4.8356 22.6543C1.75908 34.4788 9.89141 38.8591 18.454 43.4767C18.8628 43.6924 19.2716 43.9082 19.6803 44.1456C20.1967 43.8651 20.6054 43.6493 20.9927 43.4335C29.4907 38.8375 37.58 34.4572 34.5035 22.6759C33.9011 20.3239 33.4493 18.0583 33.5354 16.03C33.6215 14.0233 34.2454 12.2323 35.7298 10.8082L32.2876 4.65861C28.7808 3.2345 24.2198 2.50086 19.6588 2.50086C15.0978 2.50086 10.5583 3.21292 7.03004 4.65861Z" fill="black"/>
<path fill-rule="evenodd" clip-rule="evenodd" d="M19.6589 12.858C24.6932 12.858 29.3833 13.6996 33.4495 15.1668C29.2973 14.0016 24.6287 13.3543 19.6589 13.3543C14.6892 13.3543 10.0206 14.0016 5.86841 15.1668C9.93457 13.6996 14.6462 12.858 19.6589 12.858Z" fill="black"/>
<path fill-rule="evenodd" clip-rule="evenodd" d="M13.0325 16.0732C13.3337 16.0732 13.5918 16.3321 13.5918 16.6342C13.5918 16.9363 13.3337 17.1952 13.0325 17.1952C12.7313 17.1952 12.4731 16.9363 12.4731 16.6342C12.4731 16.3321 12.7313 16.0732 13.0325 16.0732ZM26.1991 16.0732C25.8979 16.0732 25.6397 16.3321 25.6397 16.6342C25.6397 16.9363 25.8979 17.1952 26.1991 17.1952C26.5003 17.1952 26.7585 16.9363 26.7585 16.6342C26.7585 16.3321 26.5003 16.0732 26.1991 16.0732ZM18.0453 43.2178C18.5186 43.4335 19.207 43.8867 19.6588 44.0593C20.1752 43.8435 20.9066 43.3904 21.4445 43.153V28.4371H18.0453V43.2178ZM34.2454 22.1581H29.7059V20.4534H29.7489V20.4966L30.0716 20.0219H29.7059V19.7414V18.6409H29.1465V19.7414H28.4581V16.85H28.2645V16.3537H27.9848V15.5122L27.8342 15.2101L27.6621 15.5122V16.3537H27.3178V15.4474L27.4254 15.2101H24.9513L25.0589 15.469V16.3753H24.6931V15.5337L24.5425 15.2317L24.3704 15.5337V16.3753H24.0907V16.8716H23.8971V19.7629H23.2302V18.6625H22.6708V19.7629V20.0435H22.305L22.6062 20.475H22.6708V28.4587C23.4023 28.4587 24.1122 28.4587 24.8437 28.4587V41.2326C26.07 40.5421 27.1887 39.8085 28.2214 39.0533V28.4803C29.3402 28.4803 30.4804 28.4803 31.5991 28.4803V36.1187C33.5139 33.9178 34.6972 31.4148 34.9338 28.4587C35.1275 25.6536 34.7832 24.3374 34.2454 22.1581ZM5.09377 22.1581H9.50416V20.4534H9.46113V20.4966L9.13842 20.0219H9.50416V19.7414V18.6409H10.0635V19.7414H10.752V16.85H10.9456V16.3537H11.2253V15.5122L11.3759 15.2101L11.548 15.5122V16.3537H11.9137V15.4474L11.8062 15.2101H14.2588L14.1727 15.4474V16.3537H14.5385V15.5122L14.6891 15.2101L14.8612 15.5122V16.3537H15.1409V16.85H15.3345V19.7414H16.0229V18.6409H16.5608V19.7414V20.0219H16.9265L16.6253 20.4534H16.5608V28.4371C15.9369 28.4371 15.2915 28.4371 14.6675 28.4371V41.3405C13.4412 40.65 12.3225 39.938 11.2898 39.1828V28.4587C10.1711 28.4587 9.03085 28.4587 7.91212 28.4587V36.2698C5.69616 33.8315 4.74954 31.6306 4.3838 28.4587C4.16866 25.6752 4.55592 24.3374 5.09377 22.1581Z" fill="#009933"/>
<path fill-rule="evenodd" clip-rule="evenodd" d="M19.4222 22.0502C23.8326 22.0502 27.3824 25.632 27.3824 30.0339C27.3824 34.4573 23.811 38.0176 19.4222 38.0176C15.0333 38.0176 11.4619 34.4357 11.4619 30.0339C11.4404 25.632 15.0118 22.0502 19.4222 22.0502Z" fill="white"/>
<path fill-rule="evenodd" clip-rule="evenodd" d="M12.1074 30.9616C12.1934 30.6595 12.2795 30.5301 12.4086 30.789C12.5377 31.7816 12.9249 32.6662 13.3122 33.5293C13.5273 33.7667 13.4843 34.0472 13.3982 34.3277C12.8819 33.6157 12.5161 32.7957 12.2795 31.9326L12.258 31.8463C12.1934 31.5658 12.1289 31.2637 12.1074 30.9616ZM21.8748 37.0249C21.4875 36.9818 21.4015 36.766 21.6812 36.3776C22.1545 35.6008 22.8859 35.0182 23.7465 34.5219C24.2844 34.1551 24.7792 33.7667 25.2955 33.3999C25.6828 33.1841 25.8979 33.1841 25.941 33.5078C25.7473 33.8962 25.5107 34.263 25.231 34.6082L25.0158 34.8672C24.6071 35.3419 24.1338 35.7734 23.6174 36.1402L22.7353 36.6797C22.4772 36.7876 22.176 36.917 21.8748 37.0249ZM15.4636 31.9542C15.4206 32.4936 15.4206 32.9899 15.7433 33.3567C16.1951 33.8314 16.6684 34.2414 17.3568 34.5435C17.7441 34.7161 18.1744 34.7161 18.5831 34.5651C18.9058 34.4356 19.2285 34.3277 19.5297 34.1767C19.874 34.0041 20.1106 33.7235 20.1752 33.3351C20.3258 32.5152 20.5409 31.6305 20.5409 30.8106C20.1967 30.2927 19.4437 29.8827 18.9058 29.4512C18.6262 29.2138 18.1744 29.3649 17.8301 29.4728C17.3138 29.6454 16.8835 29.8827 16.4317 30.1417C15.9154 30.4438 15.5496 30.8537 15.4636 31.9542ZM20.4333 33.8099C20.5624 32.9683 20.6915 32.1052 20.8206 31.2637C20.8421 30.94 20.9282 30.7027 21.1218 30.5948C21.6166 30.1632 22.0899 29.7749 22.6063 29.5159C23.015 29.2354 23.3377 29.3649 23.5959 29.5807C24.4134 29.9475 24.9513 30.3359 25.4461 30.7027C25.4246 31.2637 25.4031 31.8031 25.3816 32.3642C25.3386 32.7526 25.231 33.1194 24.7577 33.443C24.1983 33.8314 23.6389 34.2198 23.0581 34.6298C22.7569 34.8672 22.4341 34.9103 22.0899 34.7161C21.5306 34.5435 20.9712 34.2414 20.4333 33.8099ZM22.4126 26.4735C22.3696 26.2146 22.3481 25.9556 22.5202 25.6967C22.7999 25.2651 23.0581 24.8552 23.3377 24.4236C23.5099 24.2726 23.7035 24.2942 23.8756 24.3589L24.5856 24.7904C25.4892 25.6967 26.1776 26.8403 26.5218 28.1134C26.5649 28.4802 26.5433 28.8254 26.3927 29.1923C26.1991 29.5159 26.027 29.8396 25.8334 30.1632C25.7258 30.2927 25.5537 30.3143 25.3601 30.2064C24.7577 29.9043 24.1338 29.5807 23.5314 29.1923C23.3377 29.0412 23.1871 28.847 23.0581 28.5665C22.972 28.2644 22.3696 26.4735 22.4126 26.4735ZM18.9489 22.6543C18.5616 22.7621 18.3034 23.129 18.0453 23.4526C17.7441 23.841 17.7441 24.2078 17.9807 24.4236C18.411 24.8552 18.8413 25.4162 19.3576 25.9125C19.5728 26.1282 20.7561 25.8909 21.8963 25.8262C22.0684 25.8262 22.176 25.7183 22.2836 25.5672C22.6278 25.1141 22.929 24.6825 23.0796 24.2078C23.2087 23.9921 22.972 23.6468 22.6923 23.4526C22.6063 23.3879 22.5417 23.3447 22.4557 23.28C21.5306 22.87 20.5194 22.6327 19.4222 22.6327C19.2501 22.6543 19.0995 22.6543 18.9489 22.6543ZM14.8612 26.2793C15.313 25.3515 16.0014 24.7257 16.9911 24.4452C17.3783 24.3157 17.701 24.402 17.9162 24.7689C18.2604 25.1573 18.6262 25.5241 18.8843 25.9988C19.121 26.3656 19.0779 26.7324 18.9274 27.1208C18.7337 27.6818 18.5616 28.286 18.368 28.847C17.7226 29.2138 17.0987 29.5375 16.4532 29.9043C16.1305 30.1417 15.8293 30.1417 15.5066 29.9906C15.0548 29.5591 14.646 29.1275 14.3018 28.6528C14.1512 28.3723 14.1727 28.135 14.2803 27.8976C14.4739 27.3366 14.6676 26.7971 14.8612 26.2793ZM12.1289 28.8686L12.0428 29.7749C12.0428 29.818 12.0428 29.8396 12.0428 29.8827C12.0644 30.2064 12.3655 30.4222 12.6022 30.1632C13.1401 29.4296 13.807 28.7391 13.8285 28.5665C13.8285 28.3507 14.3879 26.5382 14.8827 25.632C15.1409 25.1357 14.6676 24.7041 14.1942 24.8767C14.1512 24.9199 14.1082 24.9631 14.0652 25.0278L12.9464 26.5814C12.5377 27.2719 12.2795 28.0486 12.1289 28.8686ZM16.905 37.0033L17.701 36.9818C18.0238 36.8091 18.1744 36.5718 18.0883 36.2265C17.9592 35.7087 17.7441 35.234 17.3353 34.8887C16.7759 34.5435 16.2166 34.1767 15.6572 33.6157C15.356 33.3999 15.0763 33.292 14.7751 33.3351C14.4094 33.4646 14.0436 33.5941 13.6779 33.7235L13.7209 34.7808C14.5815 35.7734 15.6572 36.5502 16.905 37.0033ZM21.1648 37.2407C21.1218 37.1975 21.0142 37.1328 20.7561 37.0896C19.874 36.9386 18.9919 36.917 18.0453 37.1328C17.8516 37.1975 17.8301 37.2623 18.0238 37.327C18.4756 37.4133 18.9489 37.4565 19.4222 37.4565C20.0246 37.4349 20.6055 37.3702 21.1648 37.2407ZM19.4222 22.3522C23.6605 22.3522 27.1027 25.8046 27.1027 30.0554C27.1027 34.3061 23.6605 37.7585 19.4222 37.7585C15.1839 37.7585 11.7416 34.3061 11.7416 30.0554C11.7416 25.783 15.1839 22.3522 19.4222 22.3522Z" fill="black"/>
<path fill-rule="evenodd" clip-rule="evenodd" d="M19.6804 10.7435C20.9713 10.7435 22.0039 11.7793 22.0039 13.0739C22.0039 14.3686 20.9713 15.4043 19.6804 15.4043C18.3896 15.4043 17.3569 14.3686 17.3569 13.0739C17.3354 11.7793 18.3896 10.7435 19.6804 10.7435Z" fill="white"/>
<path d="M18.7338 18.2093H18.3251V15.4905L17.5075 17.3246H17.2493L16.4318 15.4905V18.2093H16.0446V15.059H16.6039L17.3999 16.8067L18.1529 15.059H18.7338V18.2093Z" fill="#009933"/>
<path d="M19.5943 19.2018V17.3462C19.4652 17.3462 19.3361 17.3677 19.2501 17.4109C19.1425 17.454 19.0779 17.4972 18.9919 17.5835C18.9058 17.6698 18.8628 17.7561 18.8198 17.8856C18.7767 17.9935 18.7552 18.1229 18.7552 18.274C18.7552 18.4466 18.7767 18.5761 18.8198 18.7055C18.8628 18.835 18.9273 18.9213 19.0134 19.0076C19.0779 19.0724 19.164 19.1155 19.2501 19.1587C19.3361 19.1802 19.4652 19.2018 19.5943 19.2018ZM20.8421 18.2524C20.8421 18.1229 20.8206 17.9935 20.7776 17.864C20.7345 17.7561 20.67 17.6482 20.6054 17.5619C20.5409 17.4756 20.4548 17.4325 20.3473 17.3893C20.2612 17.3462 20.1321 17.3246 20.0031 17.3246V19.1802C20.1321 19.1802 20.2397 19.1587 20.3473 19.1155C20.4548 19.0724 20.5194 19.0292 20.5839 18.9645C20.67 18.8782 20.7345 18.7703 20.7776 18.6624C20.8206 18.5545 20.8421 18.4035 20.8421 18.2524ZM21.2724 18.2524C21.2724 18.4466 21.2509 18.6192 21.1863 18.7703C21.1218 18.9213 21.0357 19.0508 20.9497 19.1587C20.8421 19.2666 20.6915 19.3529 20.5194 19.4176C20.3473 19.4823 20.1752 19.5039 20.0031 19.5255V19.9139H19.5943V19.5255C19.4222 19.5255 19.2501 19.4823 19.0779 19.4392C18.9058 19.3744 18.7767 19.2881 18.6477 19.1802C18.5401 19.0724 18.454 18.9429 18.411 18.7918C18.3465 18.6408 18.325 18.4682 18.325 18.274C18.325 18.0798 18.3465 17.9287 18.411 17.7777C18.4756 17.6267 18.5401 17.4972 18.6477 17.3893C18.7552 17.2814 18.8843 17.1951 19.0564 17.1304C19.2285 17.0656 19.4007 17.0225 19.5943 17.0225V16.6772H20.0031V17.0225C20.1967 17.0225 20.3903 17.0656 20.5409 17.1304C20.713 17.1951 20.8421 17.2814 20.9497 17.3893C21.0572 17.4972 21.1218 17.6267 21.1863 17.7561C21.2509 17.9072 21.2724 18.0798 21.2724 18.2524Z" fill="#009933"/>
<path d="M23.1872 18.2093H22.6493L21.5306 16.7636H21.2724V18.2093H20.8637V15.059H21.2724V16.4831C21.4446 16.4831 21.5736 16.4399 21.6597 16.3536C21.7458 16.2673 21.8318 16.1594 21.8964 16.03C21.9179 15.9652 21.9394 15.9005 21.9609 15.8573C21.9824 15.7926 22.0039 15.7494 22.0039 15.7063C22.09 15.4689 22.1975 15.2963 22.3266 15.21C22.4557 15.1237 22.6493 15.0805 22.8645 15.0805H22.9936V15.4474H22.886C22.7139 15.4474 22.5848 15.4905 22.5203 15.5552C22.4557 15.62 22.3912 15.7494 22.3266 15.9436C22.2621 16.1378 22.1975 16.2673 22.133 16.3536C22.0685 16.4399 21.9824 16.5262 21.8748 16.591L23.1872 18.2093Z" fill="#009933"/>
<path fill-rule="evenodd" clip-rule="evenodd" d="M21.3155 11.8871C20.9282 11.995 20.3043 12.2107 20.3043 12.6639C20.3043 12.7933 20.3904 12.9012 20.5194 12.9012H21.5736L21.2079 13.3975H20.1967C19.9601 13.3975 19.7449 13.2465 19.7449 12.9875C19.7664 12.2971 20.3904 11.8871 21.3155 11.8871Z" fill="black"/>
<path fill-rule="evenodd" clip-rule="evenodd" d="M19.8741 11.5204C20.498 11.5204 21.0789 11.6499 21.3371 11.8225C20.7992 11.5851 19.0781 11.542 19.0781 12.103C19.0781 12.4914 19.5944 12.3619 19.5944 12.9661C19.5944 13.2466 19.3578 13.3761 19.2287 13.3761H18.1099L17.7442 12.8798H18.7554C18.7769 12.8798 18.8845 12.8582 18.8845 12.7503C18.8845 12.513 18.4542 12.4914 18.4542 12.103C18.4757 11.693 19.2072 11.5204 19.8741 11.5204Z" fill="black"/>
<path d="M32.1799 12.1676L30.2436 11.7144L30.3942 10.7434H30.3727L30.0715 11.6713L28.2213 11.2397L28.0922 12.1028L26.6078 11.8655L26.7584 10.9376L24.2412 10.5277L25.1663 4.65856L28.8883 5.24115L28.2213 9.53509L28.501 9.57825L28.3289 10.7219L30.2436 5.60797L32.6747 6.16899L32.1799 12.1676ZM30.8245 11.3045L31.6851 11.4987L32.0723 6.57896L30.5448 6.23372L28.8237 10.8513L29.7058 11.0455L30.007 10.1177L30.9751 10.3335L30.8245 11.3045ZM27.2102 11.4123L27.6404 11.4771L27.8771 10.0098L27.5974 9.96664L28.2643 5.67271L27.4038 5.54324L26.7368 9.83718L25.7902 9.68613L26.4572 5.3922L25.5966 5.26273L24.8436 10.0961L27.3608 10.5061L27.2102 11.4123ZM8.98772 11.7576C8.79409 11.7576 8.62198 11.736 8.44986 11.6928C8.08412 11.585 7.82595 11.3908 7.63233 11.0887C7.48173 10.8297 7.33113 10.4198 7.20205 9.88033L6.85782 8.32675C6.77176 7.93835 6.70722 7.63627 6.68571 7.42049C6.66419 7.18314 6.70722 6.92421 6.81479 6.68685C6.92236 6.4495 7.09447 6.21215 7.33113 6.03952C7.56778 5.8669 7.84747 5.73744 8.19169 5.65113C8.64349 5.54324 9.03074 5.54324 9.37497 5.65113C9.74071 5.75902 9.99888 5.95321 10.171 6.23372C10.3216 6.47108 10.4507 6.85947 10.5798 7.37733L10.7519 8.13255L8.88014 8.5641L8.9662 8.90934L10.8379 8.47779L10.967 8.97407C11.0961 9.55667 11.1606 9.96664 11.1176 10.2472C11.0961 10.5492 10.9455 10.8513 10.6658 11.1318C10.4076 11.4123 10.0634 11.585 9.61162 11.6928C9.39648 11.736 9.18134 11.7576 8.98772 11.7576ZM8.8156 6.12583C8.665 6.12583 8.49289 6.14741 8.32078 6.19057C8.06261 6.2553 7.84747 6.34161 7.67536 6.47108C7.50324 6.60054 7.39567 6.75158 7.33113 6.90263C7.26659 7.07525 7.22356 7.22629 7.24507 7.37733C7.26659 7.57153 7.30962 7.83046 7.39567 8.19728L7.7399 9.72929C7.84747 10.2256 7.97655 10.5708 8.10564 10.7866C8.21321 10.9592 8.38532 11.0887 8.60046 11.1534C8.85863 11.2181 9.15983 11.2181 9.50405 11.1318C9.82677 11.0455 10.1064 10.9161 10.2786 10.7219C10.4507 10.5277 10.5582 10.355 10.5798 10.1608C10.6013 10.0098 10.5798 9.70771 10.4507 9.10354L9.59011 9.29774L9.67617 9.70771C9.78374 10.1393 9.76222 10.2903 9.76222 10.3766C9.74071 10.5708 9.59011 10.7003 9.39648 10.765C9.18134 10.8082 8.98772 10.7434 8.88014 10.5924C8.83712 10.5277 8.77257 10.3982 8.68652 10.0098L8.12715 7.54996C8.04109 7.16156 8.0411 7.01052 8.0411 6.92421C8.06261 6.81632 8.12715 6.60054 8.42835 6.53581C8.70803 6.47108 8.85863 6.62212 8.92317 6.68685C8.9662 6.75158 9.03074 6.88105 9.13831 7.26945L9.28891 7.93835L10.1495 7.74415L10.0849 7.5068C9.95585 6.92421 9.82676 6.66527 9.74071 6.53581C9.63314 6.38477 9.46103 6.2553 9.22437 6.19057C9.1168 6.14741 8.9662 6.12583 8.8156 6.12583ZM12.0212 11.0887L11.3543 6.81632L10.5367 6.92421L10.2786 5.32746L13.8284 4.76645L14.0866 6.36319L13.269 6.49265L13.936 10.765L12.0212 11.0887ZM11.7845 6.19057L12.473 10.4629L13.3336 10.3335L12.6666 6.0611L13.4842 5.93164L13.3981 5.3922L10.881 5.78059L10.967 6.32003L11.7845 6.19057ZM14.1511 10.7219L14.4093 4.72329L16.8834 4.50752L18.0667 9.44878V8.84461H18.3248C18.4109 8.84461 18.4539 8.84461 18.4969 8.84461C18.4969 8.80145 18.5185 8.73672 18.5185 8.62883L18.583 4.37805L22.348 4.44278L22.2404 10.3982L20.3041 10.355L20.3256 9.68613C20.3041 9.75087 20.2826 9.79402 20.2611 9.83718C20.1105 10.0745 19.8954 10.2256 19.6157 10.2903C19.379 10.3335 19.0348 10.355 18.54 10.355H18.2818V10.3766L16.3025 10.5492L16.1519 9.57825H16.1304V10.5492L14.1511 10.7219ZM14.9256 5.21958L14.7105 10.1393L15.6141 10.053V9.08196L16.6037 8.99565L16.7543 9.96664L17.6364 9.88033L16.4961 5.09011L14.9256 5.21958ZM20.8635 9.85876L21.7456 9.88033L21.8316 4.98222L19.1424 4.93907L19.0778 8.65041C19.0778 8.90934 19.0348 9.18985 18.8412 9.29774C18.7766 9.34089 18.6906 9.36247 18.6045 9.38405V9.8156C19.0133 9.8156 19.336 9.8156 19.5081 9.77245C19.6372 9.75087 19.7448 9.68613 19.8093 9.57825C19.8738 9.49194 19.9384 9.27616 19.9384 8.84461L20.0029 5.50009L20.9496 5.52166L20.8635 9.85876ZM24.2197 10.5924L22.2834 10.4198L22.6707 6.29846L24.5854 6.49265L24.2197 10.5924ZM22.8643 9.94507L23.7249 10.0314L24.0046 6.98894L23.144 6.90263L22.8643 9.94507ZM31.0827 9.92349L30.05 9.68613L30.1361 9.40563C30.2867 8.9525 30.5448 8.21886 30.9106 7.22629L31.4269 7.35576C31.2978 8.28359 31.1903 9.01723 31.1257 9.59982L31.0827 9.92349ZM15.5065 8.67199V8.39148C15.5065 7.91677 15.528 7.13998 15.571 6.08268L16.0874 6.0611C16.238 6.98894 16.367 7.701 16.4961 8.30517L16.5607 8.60726L15.5065 8.67199Z" fill="black"/>
<path d="M30.8678 9.59996C30.9324 8.99578 31.0399 8.24057 31.169 7.33431C30.8033 8.3053 30.5451 9.03894 30.3945 9.49207L30.8678 9.59996ZM32.3738 6.36332L31.9435 11.8224L30.5451 11.4988L30.6957 10.5278L30.2009 10.4199L29.8997 11.3477L28.4798 11.0241L30.3945 5.91019L32.3738 6.36332ZM27.8774 11.8009L26.9092 11.6498L27.0598 10.722L24.5427 10.312L25.3817 4.96078L26.7801 5.17655L26.1132 9.47049L26.522 9.53522L27.1889 5.24129L28.5873 5.45706L27.9204 9.751L28.2001 9.79415L27.8774 11.8009ZM24.306 6.73014L23.9833 10.2904L22.5849 10.161L22.9291 6.5791L24.306 6.73014ZM22.004 10.1394L20.6056 10.1178L20.6917 5.78073H20.2829L20.2183 8.84474C20.2183 9.25471 20.1538 9.53522 20.0462 9.70784C19.9387 9.88046 19.7881 9.98835 19.5729 10.0315C19.3578 10.0747 19.0136 10.0962 18.5618 10.0747H18.3466L18.3681 9.14683C18.5402 9.14683 18.6478 9.12525 18.7339 9.08209C18.7984 9.03894 18.8414 8.8879 18.8414 8.65054L18.8845 4.65869L22.1116 4.72342L22.004 10.1394ZM16.2597 8.32688C16.1307 7.72271 16.0016 6.96749 15.851 6.08281C15.808 7.11854 15.7864 7.89533 15.7864 8.37003L16.2597 8.32688ZM16.69 4.80973L17.9594 10.1394L16.5179 10.2689L16.3673 9.29787L15.8725 9.34103V10.312L14.4311 10.4415L14.6677 4.98236L16.69 4.80973ZM13.6135 5.06867L13.7856 6.14754L12.9681 6.27701L13.635 10.5494L12.2581 10.7651L11.5912 6.49279L10.7521 6.62225L10.58 5.54337L13.6135 5.06867ZM10.4509 7.96006L9.07404 8.28372L8.8589 7.35589C8.79436 7.09696 8.75133 6.92434 8.7083 6.8596C8.66527 6.79487 8.60073 6.77329 8.49316 6.79487C8.38559 6.81645 8.32105 6.88118 8.29953 6.96749C8.27802 7.0538 8.32105 7.22642 8.36407 7.50693L8.92344 9.96677C8.98798 10.2257 9.03101 10.3767 9.07404 10.4631C9.11707 10.5278 9.20312 10.5494 9.31069 10.5278C9.41827 10.5062 9.46129 10.4415 9.48281 10.3552C9.50432 10.2689 9.46129 10.0747 9.39675 9.79415L9.24615 9.12525L10.6231 8.80159L10.6661 8.99578C10.7952 9.53522 10.8382 9.9452 10.8167 10.1825C10.7952 10.4199 10.6661 10.6788 10.4509 10.8946C10.2358 11.132 9.91309 11.283 9.54735 11.3693C9.13858 11.4556 8.79436 11.4556 8.51467 11.3693C8.21348 11.283 7.99833 11.132 7.86925 10.8946C7.71865 10.6573 7.58957 10.2689 7.482 9.751L7.13777 8.21899C7.05171 7.83059 6.98717 7.55009 6.98717 7.35589C6.96566 7.16169 7.00869 6.96749 7.09474 6.75172C7.1808 6.53594 7.3314 6.36332 7.52502 6.21228C7.74017 6.06123 7.97682 5.95335 8.27802 5.88861C8.68679 5.8023 9.03101 5.8023 9.33221 5.88861C9.63341 5.97492 9.84855 6.14754 9.97763 6.36332C10.1067 6.5791 10.2358 6.92434 10.3434 7.42062L10.4509 7.96006Z" fill="white"/>
<path fill-rule="evenodd" clip-rule="evenodd" d="M23.4667 4.01135L23.5528 4.11924V4.24871L23.5313 4.59395L23.5528 4.24871L23.5743 4.14082L23.6388 4.20555L23.6173 4.35659L23.5958 4.70183L23.6388 4.35659L23.6604 4.22713L23.7249 4.31344L23.7034 4.46448L23.6819 4.8313L23.7249 4.46448V4.33502L23.811 4.42133L23.7679 4.98234L23.4022 4.55079L23.4667 4.01135Z" fill="#009933"/>
<path fill-rule="evenodd" clip-rule="evenodd" d="M24.3273 4.07605L24.2197 4.18394L24.1982 4.3134L24.1552 4.65864L24.1982 4.3134V4.20552L24.1337 4.24867L24.1121 4.39971L24.0691 4.74495L24.0906 4.39971L24.1121 4.27025L24.0261 4.33498L24.0046 4.48602L23.9615 4.85284L24.0046 4.48602V4.35656L23.897 4.44287L23.854 4.98231L24.2843 4.63707L24.3273 4.07605Z" fill="#009933"/>
<path fill-rule="evenodd" clip-rule="evenodd" d="M23.2732 6.08268L23.7035 5.73744L23.7465 5.198L23.3163 5.54324L23.2732 6.08268Z" fill="#009933"/>
<path fill-rule="evenodd" clip-rule="evenodd" d="M24.1338 6.16899L23.7896 5.73744L23.8326 5.198L24.1984 5.62955L24.1338 6.16899Z" fill="#009933"/>
<path fill-rule="evenodd" clip-rule="evenodd" d="M24.8868 4.74494L24.7793 4.85283L24.6502 4.83125L24.2844 4.80967L24.6502 4.85283H24.7578L24.6717 4.91756H24.5426L24.1769 4.8744L24.5426 4.91756L24.6502 4.93914L24.5856 5.00387L24.435 4.98229L24.0693 4.96071L24.435 5.00387L24.5641 5.02545L24.4566 5.11176L23.9187 5.04702L24.3275 4.70178L24.8868 4.74494Z" fill="#009933"/>
<path fill-rule="evenodd" clip-rule="evenodd" d="M24.8007 5.62959L24.7146 5.50012H24.5855L24.2413 5.45697L24.5855 5.47854H24.6931L24.6285 5.41381L24.4995 5.39223L24.1337 5.34908L24.4995 5.39223H24.607L24.5425 5.30592H24.3919L24.0477 5.26277L24.3919 5.28434H24.5425L24.4564 5.19803L23.8971 5.1333L24.2628 5.56485L24.8007 5.62959Z" fill="#009933"/>
<path fill-rule="evenodd" clip-rule="evenodd" d="M22.7998 4.55078L23.144 4.98233L23.7034 5.02549L23.3376 4.61551L22.7998 4.55078Z" fill="#009933"/>
<path fill-rule="evenodd" clip-rule="evenodd" d="M22.7138 5.43542L23.1441 5.0686L23.6819 5.13334L23.2732 5.47858L22.7138 5.43542Z" fill="#009933"/>
</g>
<defs>
<clipPath id="clip0">
<rect width="38.0584" height="46.7802" fill="white" transform="translate(0.640381 0.127319)"/>
</clipPath>
</defs>
</svg>
